<svg id="visual" viewBox="0 0 600 900" width="600" height="900" xmlns="http://www.w3.org/2000/svg" xmlns:xlink="http://www.w3.org/1999/xlink" version="1.1"><rect x="0" y="0" width="600" height="900" fill="#FFFFFF"></rect><g transform="translate(300.6541632029258 452.66210590754554)"><path d="M51.1 -69.2C66.2 -48.2 78.4 -32.1 87.3 -11C96.2 10 101.8 36 89.9 47.5C78 59 48.6 55.9 22.2 69.1C-4.3 82.2 -27.8 111.6 -46.4 111.7C-65.1 111.8 -78.9 82.7 -87.9 56.1C-96.9 29.5 -101.1 5.4 -95.4 -15.1C-89.7 -35.6 -74.1 -52.7 -56.6 -73.2C-39 -93.8 -19.5 -117.9 -0.7 -117C18 -116.1 36 -90.2 51.1 -69.2" fill="#BB004B"></path></g></svg>